<svg
   class="{{ class|default:'size-8' }}"
   viewBox="0 0 270.15845 214.577"
   version="1.1"
   id="svg1"
   width="270.15808"
   height="214.57671"
   xmlns="http://www.w3.org/2000/svg"
   xmlns:svg="http://www.w3.org/2000/svg">
  <g
     id="g10"
     transform="translate(-11.957593,-31.743767)">
    <image
       x="-24.334949"
       y="-40.268063"
       width="357.98126"
       height="357.98126"
       display="none"
       preserveAspectRatio="none"
       id="image1" />
    <path
       d="m 11.957593,193.86581 12.464615,48.88526 203.641272,3.56941 -12.17235,-53.32638 z"
       fill="#4a748a"
       stroke-width="0.643311"
       id="path1" />
    <path
       d="M 228.02673,246.23741 282.11566,65.219876 275.39961,31.743767 215.89099,193.00217 Z"
       fill="#376a85"
       stroke-width="0.643311"
       id="path2"
       style="display:inline" />
    <path
       d="M 11.998796,193.87335 135.07767,32.705669 275.28587,32.844953 215.92326,193.01558 Z"
       fill="#7e9ba9"
       stroke-width="0.700371"
       id="path3"
       style="display:inline" />
    <path
       d="m 149.05639,68.296046 -51.059622,67.832804 90.209492,-0.0136 31.49498,-67.093009 z"
       fill="#376a85"
       stroke-width="0.471725"
       id="path4"
       style="display:inline" />
    <path
       d="m 224.15093,170.32075 11.37736,51.70754 2.63208,-9.16981 -11.20755,-50.94339 z"
       id="path7"
       style="fill:#455c6a;stroke-width:0.264583" />
    <path
       d="m 227.43286,160.09917 11.37736,51.70754 2.63208,-9.16981 -11.20755,-50.94339 z"
       id="path8"
       style="fill:#455c6a;stroke-width:0.264583" />
    <path
       d="m 230.766,150.67048 11.37736,51.70754 2.63208,-9.16981 -11.20755,-50.94339 z"
       id="path9"
       style="fill:#455c6a;stroke-width:0.264583" />
    <path
       style="fill:#fefefe;fill-opacity:1;stroke-width:0.264583"
       d="m 109.78302,140.47641 -7.99294,13.84418 h 8.88444 l 1.12921,-1.95584 h -6.266 l 6.84023,-11.84762 z"
       id="path10" />
    <path
       style="fill:#fdfefb;fill-opacity:1;stroke-width:0.264583"
       d="m 120.6552,140.53919 -7.99294,13.84418 h 8.88444 l 1.12921,-1.95584 h -6.266 l 6.84023,-11.84762 z"
       id="path10-3" />
    <path
       style="display:inline;fill:#fefefe;fill-opacity:1;stroke-width:0.264583"
       d="M 123.28302,154.10377 136.76179,140.625 h 2.39858 l -3.67301,13.70787 h -3.16189 l 0.7318,-2.73111 h -4.21293 l -2.58827,2.58827 z"
       id="path11" />
    <path
       style="display:inline;fill:#fefefe;fill-opacity:1;stroke-width:0.264583"
       d="m 144.46698,140.81603 -7.73274,13.3935 h 2.34123 l 5.40393,-9.35987 v 9.63619 h 3.55362 l 8.06723,-13.97286 h -2.50591 l -5.96883,10.33831 v -10.03527 z"
       id="path12" />
    <path
       style="fill:#fefefe;fill-opacity:1;stroke-width:0.264583"
       d="m 160.04717,140.56132 -19.25368,33.34834 c 0,0 27.61688,4.64694 39.58858,-14.62665 11.9717,-19.27358 -6.79245,-18.67924 -6.79245,-18.67924 z"
       id="path13" />
    <path
       style="fill:#7e9ba9;fill-opacity:1;stroke-width:0.183563"
       d="m 161.41968,144.65323 -12.53938,24.64649 c 0,0 17.9861,3.43438 25.78293,-10.81 7.79683,-14.24436 -4.42373,-13.80511 -4.42373,-13.80511 z"
       id="path13-2" />
    <path
       style="fill:#7b9cad;fill-opacity:1;stroke-width:0.264583"
       d="m 130.71226,149.51887 h 2.80189 l 1.58253,-5.17381 z"
       id="path14" />
    <path
       style="fill:#fefefe;fill-opacity:1;stroke-width:0.264583"
       d="m 191.9995,140.48744 -5.34333,33.68096 h 6.48404 l 33.56089,-33.56089 h -7.56471 l -24.70538,24.70538 4.71294,-24.82545 z"
       id="path15" />
    <path
       style="fill:#ccd5dc;fill-opacity:1;stroke-width:0.264583"
       d="m 111.60947,136.10471 h 68.20245 c 0,0 -4.32269,-20.95304 -28.63783,-22.3339 -24.31513,-1.38086 -38.36387,14.34893 -39.56462,22.3339 z"
       id="path16" />
    <path
       style="fill:#fefefe;fill-opacity:1;stroke-width:0.12038"
       d="m 131.40855,136.10555 h 27.25697 c 0,0 -1.72756,-10.85304 -11.44505,-11.56829 -9.71749,-0.71524 -15.33204,7.43231 -15.81192,11.56829 z"
       id="path16-6" />
  </g>
</svg>
